<svg width="54" height="108" viewBox="0 0 54 108" fill="none" xmlns="http://www.w3.org/2000/svg">
<path d="M35.8 104.8C35.8 106.1 34.7 107.2 33.4 107.2C32.1 107.2 31 106.1 31 104.8C31 103.5 32.1 102.4 33.4 102.4C34.7 102.4 35.8 103.4 35.8 104.8Z" fill="#EC4D69"/>
<path d="M51.3 104.8C51.3 106.1 50.2 107.2 48.9 107.2C47.6 107.2 46.5 106.1 46.5 104.8C46.5 103.5 47.6 102.4 48.9 102.4C50.2 102.4 51.3 103.4 51.3 104.8Z" fill="#EC4D69"/>
<path d="M20.3 90.2C20.3 91.5 19.2 92.6 17.9 92.6C16.6 92.6 15.5 91.5 15.5 90.2C15.5 88.9 16.6 87.8 17.9 87.8C19.3 87.7 20.3 88.8 20.3 90.2Z" fill="#EC4D69"/>
<path d="M35.8 90.2C35.8 91.5 34.7 92.6 33.4 92.6C32.1 92.6 31 91.5 31 90.2C31 88.9 32.1 87.8 33.4 87.8C34.7 87.7 35.8 88.8 35.8 90.2Z" fill="#EC4D69"/>
<path d="M51.3 90.2C51.3 91.5 50.2 92.6 48.9 92.6C47.6 92.6 46.5 91.5 46.5 90.2C46.5 88.9 47.6 87.8 48.9 87.8C50.2 87.7 51.3 88.8 51.3 90.2Z" fill="#EC4D69"/>
<path d="M20.3 75.5C20.3 76.8 19.2 77.9 17.9 77.9C16.6 77.9 15.5 76.8 15.5 75.5C15.5 74.2 16.6 73.1 17.9 73.1C19.3 73.1 20.3 74.2 20.3 75.5Z" fill="#EC4D69"/>
<path d="M5.3 75.5C5.3 76.8 4.2 77.9 2.9 77.9C1.6 77.9 0.5 76.8 0.5 75.5C0.5 74.2 1.6 73.1 2.9 73.1C4.3 73.1 5.3 74.2 5.3 75.5Z" fill="#EC4D69"/>
<path d="M35.8 75.5C35.8 76.8 34.7 77.9 33.4 77.9C32.1 77.9 31 76.8 31 75.5C31 74.2 32.1 73.1 33.4 73.1C34.7 73.1 35.8 74.2 35.8 75.5Z" fill="#EC4D69"/>
<path d="M51.3 75.5C51.3 76.8 50.2 77.9 48.9 77.9C47.6 77.9 46.5 76.8 46.5 75.5C46.5 74.2 47.6 73.1 48.9 73.1C50.2 73.1 51.3 74.2 51.3 75.5Z" fill="#EC4D69"/>
<path d="M4.8 60.9C4.8 62.2 3.7 63.3 2.4 63.3C1.1 63.3 0 62.2 0 60.9C0 59.6 1.1 58.5 2.4 58.5C3.8 58.5 4.8 59.6 4.8 60.9Z" fill="#EC4D69"/>
<path d="M20.3 60.9C20.3 62.2 19.2 63.3 17.9 63.3C16.6 63.3 15.5 62.2 15.5 60.9C15.5 59.6 16.6 58.5 17.9 58.5C19.3 58.5 20.3 59.6 20.3 60.9Z" fill="#EC4D69"/>
<path d="M35.8 60.9C35.8 62.2 34.7 63.3 33.4 63.3C32.1 63.3 31 62.2 31 60.9C31 59.6 32.1 58.5 33.4 58.5C34.7 58.5 35.8 59.6 35.8 60.9Z" fill="#EC4D69"/>
<path d="M51.3 60.9C51.3 62.2 50.2 63.3 48.9 63.3C47.6 63.3 46.5 62.2 46.5 60.9C46.5 59.6 47.6 58.5 48.9 58.5C50.2 58.5 51.3 59.6 51.3 60.9Z" fill="#EC4D69"/>
<path d="M4.8 46.3C4.8 47.6 3.7 48.7 2.4 48.7C1.1 48.7 0 47.6 0 46.3C0 45 1.1 43.9 2.4 43.9C3.8 43.9 4.8 45 4.8 46.3Z" fill="#EC4D69"/>
<path d="M20.3 46.3C20.3 47.6 19.2 48.7 17.9 48.7C16.6 48.7 15.5 47.6 15.5 46.3C15.5 45 16.6 43.9 17.9 43.9C19.3 43.9 20.3 45 20.3 46.3Z" fill="#EC4D69"/>
<path d="M35.8 46.3C35.8 47.6 34.7 48.7 33.4 48.7C32.1 48.7 31 47.6 31 46.3C31 45 32.1 43.9 33.4 43.9C34.7 43.9 35.8 45 35.8 46.3Z" fill="#EC4D69"/>
<path d="M51.3 46.3C51.3 47.6 50.2 48.7 48.9 48.7C47.6 48.7 46.5 47.6 46.5 46.3C46.5 45 47.6 43.9 48.9 43.9C50.2 43.9 51.3 45 51.3 46.3Z" fill="#EC4D69"/>
<path d="M20.3 31.7C20.3 33 19.2 34.1 17.9 34.1C16.6 34.1 15.5 33 15.5 31.7C15.5 30.4 16.6 29.3 17.9 29.3C19.3 29.2 20.3 30.3 20.3 31.7Z" fill="#EC4D69"/>
<path d="M35.8 31.7C35.8 33 34.7 34.1 33.4 34.1C32.1 34.1 31 33 31 31.7C31 30.4 32.1 29.3 33.4 29.3C34.7 29.2 35.8 30.3 35.8 31.7Z" fill="#EC4D69"/>
<path d="M51.3 31.7C51.3 33 50.2 34.1 48.9 34.1C47.6 34.1 46.5 33 46.5 31.7C46.5 30.4 47.6 29.3 48.9 29.3C50.2 29.2 51.3 30.3 51.3 31.7Z" fill="#EC4D69"/>
<path d="M20.3 17C20.3 18.3 19.2 19.4 17.9 19.4C16.6 19.4 15.5 18.3 15.5 17C15.5 15.7 16.6 14.6 17.9 14.6C19.3 14.6 20.3 15.7 20.3 17Z" fill="#EC4D69"/>
<path d="M35.8 17C35.8 18.3 34.7 19.4 33.4 19.4C32.1 19.4 31 18.3 31 17C31 15.7 32.1 14.6 33.4 14.6C34.7 14.6 35.8 15.7 35.8 17Z" fill="#EC4D69"/>
<path d="M51.3 17C51.3 18.3 50.2 19.4 48.9 19.4C47.6 19.4 46.5 18.3 46.5 17C46.5 15.7 47.6 14.6 48.9 14.6C50.2 14.6 51.3 15.7 51.3 17Z" fill="#EC4D69"/>
<path d="M35.8 2.4C35.8 3.7 34.7 4.8 33.4 4.8C32.1 4.8 31 3.7 31 2.4C31 1.1 32.1 0 33.4 0C34.7 0 35.8 1.1 35.8 2.4Z" fill="#EC4D69"/>
<path d="M51.3 2.4C51.3 3.7 50.2 4.8 48.9 4.8C47.6 4.8 46.5 3.7 46.5 2.4C46.5 1.1 47.6 0 48.9 0C50.2 0 51.3 1.1 51.3 2.4Z" fill="#EC4D69"/>
</svg>
