<svg width="52" height="60" viewBox="0 0 52 60" fill="none" xmlns="http://www.w3.org/2000/svg">
<path d="M26.7228 57.9982C26.7228 58.9161 27.4995 59.6928 28.4174 59.6928C29.3354 59.6928 30.1121 58.9161 30.1121 57.9982C30.1121 57.0803 29.3354 56.3036 28.4174 56.3036C27.4995 56.3036 26.7228 57.0097 26.7228 57.9982Z" fill="#EC4D69"/>
<path d="M15.7785 57.9982C15.7785 58.9161 16.5552 59.6928 17.4731 59.6928C18.391 59.6928 19.1677 58.9161 19.1677 57.9982C19.1677 57.0803 18.391 56.3036 17.4731 56.3036C16.5552 56.3036 15.7785 57.0097 15.7785 57.9982Z" fill="#EC4D69"/>
<path d="M4.83415 57.9982C4.83415 58.9161 5.61085 59.6928 6.52877 59.6928C7.44669 59.6928 8.22339 58.9161 8.22339 57.9982C8.22339 57.0803 7.44669 56.3036 6.52877 56.3036C5.61085 56.3036 4.83415 57.0097 4.83415 57.9982Z" fill="#EC4D69"/>
<path d="M37.6672 47.6893C37.6672 48.6072 38.4439 49.3839 39.3618 49.3839C40.2797 49.3839 41.0564 48.6072 41.0564 47.6893C41.0564 46.7714 40.2797 45.9947 39.3618 45.9947C38.3733 45.9241 37.6672 46.7008 37.6672 47.6893Z" fill="#EC4D69"/>
<path d="M26.7226 47.6893C26.7226 48.6072 27.4993 49.3839 28.4172 49.3839C29.3351 49.3839 30.1118 48.6072 30.1118 47.6893C30.1118 46.7714 29.3351 45.9947 28.4172 45.9947C27.4993 45.9241 26.7226 46.7008 26.7226 47.6893Z" fill="#EC4D69"/>
<path d="M15.7782 47.6893C15.7782 48.6072 16.5549 49.3839 17.4729 49.3839C18.3908 49.3839 19.1675 48.6072 19.1675 47.6893C19.1675 46.7714 18.3908 45.9947 17.4729 45.9947C16.5549 45.9241 15.7782 46.7008 15.7782 47.6893Z" fill="#EC4D69"/>
<path d="M4.83367 47.6893C4.83367 48.6072 5.61037 49.3839 6.52828 49.3839C7.4462 49.3839 8.2229 48.6072 8.2229 47.6893C8.2229 46.7714 7.4462 45.9947 6.52828 45.9947C5.61037 45.9241 4.83367 46.7008 4.83367 47.6893Z" fill="#EC4D69"/>
<path d="M37.6672 37.3097C37.6672 38.2276 38.4439 39.0043 39.3618 39.0043C40.2797 39.0043 41.0564 38.2276 41.0564 37.3097C41.0564 36.3918 40.2797 35.6151 39.3618 35.6151C38.3733 35.6151 37.6672 36.3918 37.6672 37.3097Z" fill="#EC4D69"/>
<path d="M48.258 37.3097C48.258 38.2276 49.0347 39.0043 49.9526 39.0043C50.8705 39.0043 51.6472 38.2276 51.6472 37.3097C51.6472 36.3918 50.8705 35.6151 49.9526 35.6151C48.9641 35.6151 48.258 36.3918 48.258 37.3097Z" fill="#EC4D69"/>
<path d="M26.7226 37.3097C26.7226 38.2276 27.4993 39.0043 28.4172 39.0043C29.3351 39.0043 30.1118 38.2276 30.1118 37.3097C30.1118 36.3918 29.3351 35.6151 28.4172 35.6151C27.4993 35.6151 26.7226 36.3918 26.7226 37.3097Z" fill="#EC4D69"/>
<path d="M15.7782 37.3097C15.7782 38.2276 16.5549 39.0043 17.4729 39.0043C18.3908 39.0043 19.1675 38.2276 19.1675 37.3097C19.1675 36.3918 18.3908 35.6151 17.4729 35.6151C16.5549 35.6151 15.7782 36.3918 15.7782 37.3097Z" fill="#EC4D69"/>
<path d="M4.83367 37.3097C4.83367 38.2276 5.61037 39.0043 6.52828 39.0043C7.4462 39.0043 8.2229 38.2276 8.2229 37.3097C8.2229 36.3918 7.4462 35.6151 6.52828 35.6151C5.61037 35.6151 4.83367 36.3918 4.83367 37.3097Z" fill="#EC4D69"/>
<path d="M48.6115 27.0008C48.6115 27.9187 49.3882 28.6954 50.3061 28.6954C51.224 28.6954 52.0007 27.9187 52.0007 27.0008C52.0007 26.0829 51.224 25.3062 50.3061 25.3062C49.3176 25.3062 48.6115 26.0829 48.6115 27.0008Z" fill="#EC4D69"/>
<path d="M37.6672 27.0008C37.6672 27.9187 38.4439 28.6954 39.3618 28.6954C40.2797 28.6954 41.0564 27.9187 41.0564 27.0008C41.0564 26.0829 40.2797 25.3062 39.3618 25.3062C38.3733 25.3062 37.6672 26.0829 37.6672 27.0008Z" fill="#EC4D69"/>
<path d="M26.7226 27.0008C26.7226 27.9187 27.4993 28.6954 28.4172 28.6954C29.3351 28.6954 30.1118 27.9187 30.1118 27.0008C30.1118 26.0829 29.3351 25.3062 28.4172 25.3062C27.4993 25.3062 26.7226 26.0829 26.7226 27.0008Z" fill="#EC4D69"/>
<path d="M15.7782 27.0008C15.7782 27.9187 16.5549 28.6954 17.4729 28.6954C18.3908 28.6954 19.1675 27.9187 19.1675 27.0008C19.1675 26.0829 18.3908 25.3062 17.4729 25.3062C16.5549 25.3062 15.7782 26.0829 15.7782 27.0008Z" fill="#EC4D69"/>
<path d="M4.83367 27.0008C4.83367 27.9187 5.61037 28.6954 6.52828 28.6954C7.4462 28.6954 8.2229 27.9187 8.2229 27.0008C8.2229 26.0829 7.4462 25.3062 6.52828 25.3062C5.61037 25.3062 4.83367 26.0829 4.83367 27.0008Z" fill="#EC4D69"/>
<path d="M48.6115 16.6921C48.6115 17.61 49.3882 18.3867 50.3061 18.3867C51.224 18.3867 52.0007 17.61 52.0007 16.6921C52.0007 15.7741 51.224 14.9974 50.3061 14.9974C49.3176 14.9974 48.6115 15.7741 48.6115 16.6921Z" fill="#EC4D69"/>
<path d="M37.6672 16.6921C37.6672 17.61 38.4439 18.3867 39.3618 18.3867C40.2797 18.3867 41.0564 17.61 41.0564 16.6921C41.0564 15.7741 40.2797 14.9974 39.3618 14.9974C38.3733 14.9974 37.6672 15.7741 37.6672 16.6921Z" fill="#EC4D69"/>
<path d="M26.7226 16.6921C26.7226 17.61 27.4993 18.3867 28.4172 18.3867C29.3351 18.3867 30.1118 17.61 30.1118 16.6921C30.1118 15.7741 29.3351 14.9974 28.4172 14.9974C27.4993 14.9974 26.7226 15.7741 26.7226 16.6921Z" fill="#EC4D69"/>
<path d="M15.7782 16.6921C15.7782 17.61 16.5549 18.3867 17.4729 18.3867C18.3908 18.3867 19.1675 17.61 19.1675 16.6921C19.1675 15.7741 18.3908 14.9974 17.4729 14.9974C16.5549 14.9974 15.7782 15.7741 15.7782 16.6921Z" fill="#EC4D69"/>
<path d="M4.83367 16.6921C4.83367 17.61 5.61037 18.3867 6.52828 18.3867C7.4462 18.3867 8.2229 17.61 8.2229 16.6921C8.2229 15.7741 7.4462 14.9974 6.52828 14.9974C5.61037 14.9974 4.83367 15.7741 4.83367 16.6921Z" fill="#EC4D69"/>
<path d="M37.6672 6.38316C37.6672 7.30108 38.4439 8.07777 39.3618 8.07777C40.2797 8.07777 41.0564 7.30108 41.0564 6.38316C41.0564 5.46524 40.2797 4.68854 39.3618 4.68854C38.3733 4.61793 37.6672 5.39463 37.6672 6.38316Z" fill="#EC4D69"/>
<path d="M26.7226 6.38316C26.7226 7.30108 27.4993 8.07777 28.4172 8.07777C29.3351 8.07777 30.1118 7.30108 30.1118 6.38316C30.1118 5.46524 29.3351 4.68854 28.4172 4.68854C27.4993 4.61793 26.7226 5.39463 26.7226 6.38316Z" fill="#EC4D69"/>
<path d="M15.7782 6.38316C15.7782 7.30108 16.5549 8.07777 17.4729 8.07777C18.3908 8.07777 19.1675 7.30108 19.1675 6.38316C19.1675 5.46524 18.3908 4.68854 17.4729 4.68854C16.5549 4.61793 15.7782 5.39463 15.7782 6.38316Z" fill="#EC4D69"/>
<path d="M4.83367 6.38316C4.83367 7.30108 5.61037 8.07777 6.52828 8.07777C7.4462 8.07777 8.2229 7.30108 8.2229 6.38316C8.2229 5.46524 7.4462 4.68854 6.52828 4.68854C5.61037 4.61793 4.83367 5.39463 4.83367 6.38316Z" fill="#EC4D69"/>
</svg>
