<svg width="24" height="24" viewBox="0 0 24 24" fill="none" xmlns="http://www.w3.org/2000/svg">
<g clip-path="url(#clip0_16_152)">
<path d="M23.978 0.0110168H0V23.989H23.978V0.0110168Z" fill="#F5F5F5"/>
<path d="M24 0.0110168H0V1.85508H24V0.0110168Z" fill="#FF4B55"/>
<path d="M24 7.38892H0V9.23298H24V7.38892Z" fill="#FF4B55"/>
<path d="M24 3.70007H0V5.54414H24V3.70007Z" fill="#FF4B55"/>
<path d="M24 11.0775H0V12.9216H24V11.0775Z" fill="#FF4B55"/>
<path d="M24 18.4552H0V20.2992H24V18.4552Z" fill="#FF4B55"/>
<path d="M24 22.1442H0V23.9883H24V22.1442Z" fill="#FF4B55"/>
<path d="M24 14.7666H0V16.6106H24V14.7666Z" fill="#FF4B55"/>
<path d="M12.9113 0.0110168H0V12.9223H12.9113V0.0110168Z" fill="#41479B"/>
<path d="M1.65081 0.975655L1.75028 1.27397L2.06472 1.2764C2.1054 1.27673 2.12233 1.32867 2.08956 1.35286L1.83662 1.53965L1.93145 1.83947C1.94373 1.87828 1.89958 1.91039 1.86639 1.88672L1.61054 1.70386L1.3547 1.88672C1.32161 1.91044 1.2774 1.87828 1.28964 1.83947L1.38447 1.53965L1.13153 1.35286C1.09881 1.32867 1.11564 1.27673 1.15637 1.2764L1.47081 1.27397L1.57028 0.975655C1.58331 0.93703 1.63797 0.93703 1.65081 0.975655Z" fill="#F5F5F5"/>
<path d="M1.65081 3.46415L1.75028 3.76247L2.06472 3.7649C2.1054 3.76523 2.12233 3.81717 2.08956 3.84136L1.83662 4.02815L1.93145 4.32797C1.94373 4.36678 1.89958 4.39889 1.86639 4.37522L1.61054 4.19236L1.3547 4.37522C1.32161 4.39894 1.2774 4.36678 1.28964 4.32797L1.38447 4.02815L1.13153 3.84136C1.09881 3.81717 1.11564 3.76523 1.15637 3.7649L1.47081 3.76247L1.57028 3.46415C1.58331 3.42548 1.63797 3.42548 1.65081 3.46415Z" fill="#F5F5F5"/>
<path d="M1.65081 6.22407L1.75028 6.52238L2.06472 6.52482C2.1054 6.52515 2.12233 6.57708 2.08956 6.60132L1.83662 6.78811L1.93145 7.08793C1.94373 7.12674 1.89958 7.15885 1.86639 7.13518L1.61054 6.95232L1.3547 7.13518C1.32161 7.1589 1.2774 7.12674 1.28964 7.08793L1.38447 6.78811L1.13153 6.60132C1.09881 6.57713 1.11564 6.52515 1.15637 6.52482L1.47081 6.52238L1.57028 6.22407C1.58331 6.18544 1.63797 6.18544 1.65081 6.22407Z" fill="#F5F5F5"/>
<path d="M1.65081 8.7598L1.75028 9.05812L2.06472 9.06055C2.1054 9.06088 2.12233 9.11282 2.08956 9.13701L1.83662 9.3238L1.93145 9.62362C1.94373 9.66243 1.89958 9.69454 1.86639 9.67087L1.61054 9.48801L1.3547 9.67087C1.32161 9.69458 1.2774 9.66243 1.28964 9.62362L1.38447 9.3238L1.13153 9.13701C1.09881 9.11282 1.11564 9.06088 1.15637 9.06055L1.47081 9.05812L1.57028 8.7598C1.58331 8.72118 1.63797 8.72118 1.65081 8.7598Z" fill="#F5F5F5"/>
<path d="M1.65081 11.0673L1.75028 11.3656L2.06472 11.368C2.1054 11.3683 2.12233 11.4203 2.08956 11.4445L1.83662 11.6313L1.93145 11.9311C1.94373 11.9699 1.89958 12.002 1.86639 11.9783L1.61054 11.7955L1.3547 11.9783C1.32161 12.002 1.2774 11.9699 1.28964 11.9311L1.38447 11.6313L1.13153 11.4445C1.09881 11.4203 1.11564 11.3683 1.15637 11.368L1.47081 11.3656L1.57028 11.0673C1.58331 11.0286 1.63797 11.0286 1.65081 11.0673Z" fill="#F5F5F5"/>
<path d="M2.86199 2.15406L2.96146 2.45237L3.2759 2.45481C3.31659 2.45514 3.33351 2.50708 3.30074 2.53126L3.0478 2.71806L3.14263 3.01787C3.15491 3.05669 3.11076 3.08879 3.07757 3.06512L2.82173 2.88226L2.56588 3.06512C2.53279 3.08884 2.48859 3.05669 2.50082 3.01787L2.59565 2.71806L2.34271 2.53126C2.30999 2.50708 2.32682 2.45514 2.36755 2.45481L2.68199 2.45237L2.78146 2.15406C2.79449 2.11544 2.84915 2.11544 2.86199 2.15406Z" fill="#F5F5F5"/>
<path d="M2.86199 4.91401L2.96146 5.21232L3.2759 5.21476C3.31659 5.21509 3.33351 5.26702 3.30074 5.29121L3.0478 5.47801L3.14263 5.77782C3.15491 5.81663 3.11076 5.84874 3.07757 5.82507L2.82173 5.64221L2.56588 5.82507C2.53279 5.84879 2.48859 5.81663 2.50082 5.77782L2.59565 5.47801L2.34271 5.29121C2.30999 5.26702 2.32682 5.21509 2.36755 5.21476L2.68199 5.21232L2.78146 4.91401C2.79449 4.87538 2.84915 4.87538 2.86199 4.91401Z" fill="#F5F5F5"/>
<path d="M2.86199 7.53614L2.96146 7.83445L3.2759 7.83689C3.31659 7.83721 3.33351 7.88915 3.30074 7.91334L3.0478 8.10014L3.14263 8.39995C3.15491 8.43876 3.11076 8.47087 3.07757 8.4472L2.82173 8.26434L2.56588 8.4472C2.53279 8.47092 2.48859 8.43876 2.50082 8.39995L2.59565 8.10014L2.34271 7.91334C2.30999 7.88915 2.32682 7.83721 2.36755 7.83689L2.68199 7.83445L2.78146 7.53614C2.79449 7.49756 2.84915 7.49756 2.86199 7.53614Z" fill="#F5F5F5"/>
<path d="M2.86199 9.89094L2.96146 10.1893L3.2759 10.1917C3.31659 10.192 3.33351 10.244 3.30074 10.2681L3.0478 10.4549L3.14263 10.7548C3.15491 10.7936 3.11076 10.8257 3.07757 10.802L2.82173 10.6191L2.56588 10.802C2.53279 10.8257 2.48859 10.7936 2.50082 10.7548L2.59565 10.4549L2.34271 10.2681C2.30999 10.244 2.32682 10.192 2.36755 10.1917L2.68199 10.1893L2.78146 9.89094C2.79449 9.85227 2.84915 9.85227 2.86199 9.89094Z" fill="#F5F5F5"/>
<path d="M4.07317 0.975655L4.17264 1.27397L4.48708 1.2764C4.52777 1.27673 4.54469 1.32867 4.51192 1.35286L4.25899 1.53965L4.35381 1.83947C4.3661 1.87828 4.32194 1.91039 4.28875 1.88672L4.03291 1.70386L3.77706 1.88672C3.74397 1.91044 3.69977 1.87828 3.712 1.83947L3.80683 1.53965L3.55389 1.35286C3.52117 1.32867 3.538 1.27673 3.57874 1.2764L3.89317 1.27397L3.99264 0.975655C4.00567 0.93703 4.06028 0.93703 4.07317 0.975655Z" fill="#F5F5F5"/>
<path d="M4.07317 3.46415L4.17264 3.76247L4.48708 3.7649C4.52777 3.76523 4.54469 3.81717 4.51192 3.84136L4.25899 4.02815L4.35381 4.32797C4.3661 4.36678 4.32194 4.39889 4.28875 4.37522L4.03291 4.19236L3.77706 4.37522C3.74397 4.39894 3.69977 4.36678 3.712 4.32797L3.80683 4.02815L3.55389 3.84136C3.52117 3.81717 3.538 3.76523 3.57874 3.7649L3.89317 3.76247L3.99264 3.46415C4.00567 3.42548 4.06028 3.42548 4.07317 3.46415Z" fill="#F5F5F5"/>
<path d="M4.07317 6.22407L4.17264 6.52238L4.48708 6.52482C4.52777 6.52515 4.54469 6.57708 4.51192 6.60132L4.25899 6.78811L4.35381 7.08793C4.3661 7.12674 4.32194 7.15885 4.28875 7.13518L4.03291 6.95232L3.77706 7.13518C3.74397 7.1589 3.69977 7.12674 3.712 7.08793L3.80683 6.78811L3.55389 6.60132C3.52117 6.57713 3.538 6.52515 3.57874 6.52482L3.89317 6.52238L3.99264 6.22407C4.00567 6.18544 4.06028 6.18544 4.07317 6.22407Z" fill="#F5F5F5"/>
<path d="M4.07332 8.75981L4.17279 9.05812L4.48723 9.06056C4.52792 9.06089 4.54484 9.11283 4.51207 9.13701L4.25914 9.32381L4.35396 9.62362C4.36625 9.66243 4.32209 9.69454 4.2889 9.67087L4.03315 9.48797L3.77731 9.67083C3.74421 9.69454 3.70001 9.66239 3.71225 9.62357L3.80707 9.32376L3.55414 9.13697C3.52142 9.11278 3.53825 9.06084 3.57898 9.06051L3.89342 9.05807L3.99289 8.75976C4.00582 8.72118 4.06043 8.72118 4.07332 8.75981Z" fill="#F5F5F5"/>
<path d="M4.07317 11.0673L4.17264 11.3656L4.48708 11.368C4.52777 11.3683 4.54469 11.4203 4.51192 11.4445L4.25899 11.6313L4.35381 11.9311C4.3661 11.9699 4.32194 12.002 4.28875 11.9783L4.03291 11.7955L3.77706 11.9783C3.74397 12.002 3.69977 11.9699 3.712 11.9311L3.80683 11.6313L3.55389 11.4445C3.52117 11.4203 3.538 11.3683 3.57874 11.368L3.89317 11.3656L3.99264 11.0673C4.00567 11.0286 4.06028 11.0286 4.07317 11.0673Z" fill="#F5F5F5"/>
<path d="M5.28436 2.15406L5.38382 2.45237L5.69826 2.45481C5.73895 2.45514 5.75587 2.50708 5.72311 2.53126L5.47017 2.71806L5.565 3.01787C5.57728 3.05669 5.53312 3.08879 5.49993 3.06512L5.24409 2.88226L4.98825 3.06512C4.95515 3.08884 4.91095 3.05669 4.92318 3.01787L5.01801 2.71806L4.76507 2.53126C4.73236 2.50708 4.74918 2.45514 4.78992 2.45481L5.1045 2.45237L5.20396 2.15406C5.21686 2.11544 5.27146 2.11544 5.28436 2.15406Z" fill="#F5F5F5"/>
<path d="M5.28436 4.91401L5.38382 5.21232L5.69826 5.21476C5.73895 5.21509 5.75587 5.26702 5.72311 5.29121L5.47017 5.47801L5.565 5.77782C5.57728 5.81663 5.53312 5.84874 5.49993 5.82507L5.24409 5.64221L4.98825 5.82507C4.95515 5.84879 4.91095 5.81663 4.92318 5.77782L5.01801 5.47801L4.76507 5.29121C4.73236 5.26702 4.74918 5.21509 4.78992 5.21476L5.10436 5.21232L5.20382 4.91401C5.21686 4.87538 5.27146 4.87538 5.28436 4.91401Z" fill="#F5F5F5"/>
<path d="M5.28436 7.53614L5.38382 7.83445L5.69826 7.83689C5.73895 7.83721 5.75587 7.88915 5.72311 7.91334L5.47017 8.10014L5.565 8.39995C5.57728 8.43876 5.53312 8.47087 5.49993 8.4472L5.24409 8.26434L4.98825 8.4472C4.95515 8.47092 4.91095 8.43876 4.92318 8.39995L5.01801 8.10014L4.76507 7.91334C4.73236 7.88915 4.74918 7.83721 4.78992 7.83689L5.10436 7.83445L5.20382 7.53614C5.21686 7.49756 5.27146 7.49756 5.28436 7.53614Z" fill="#F5F5F5"/>
<path d="M5.28436 9.89094L5.38382 10.1893L5.69826 10.1917C5.73895 10.192 5.75587 10.244 5.72311 10.2681L5.47017 10.4549L5.565 10.7548C5.57728 10.7936 5.53312 10.8257 5.49993 10.802L5.24409 10.6191L4.98825 10.802C4.95515 10.8257 4.91095 10.7936 4.92318 10.7548L5.01801 10.4549L4.76507 10.2681C4.73236 10.244 4.74918 10.192 4.78992 10.1917L5.10436 10.1893L5.20382 9.89094C5.21686 9.85227 5.27146 9.85227 5.28436 9.89094Z" fill="#F5F5F5"/>
<path d="M6.49578 0.975655L6.59525 1.27397L6.90969 1.2764C6.95038 1.27673 6.9673 1.32867 6.93453 1.35286L6.68159 1.53965L6.77642 1.83947C6.7887 1.87828 6.74455 1.91039 6.71136 1.88672L6.45552 1.70386L6.19967 1.88672C6.16658 1.91044 6.12237 1.87828 6.13461 1.83947L6.22944 1.53965L5.9765 1.35286C5.94378 1.32867 5.96061 1.27673 6.00134 1.2764L6.31578 1.27397L6.41525 0.975655C6.42828 0.93703 6.48289 0.93703 6.49578 0.975655Z" fill="#F5F5F5"/>
<path d="M6.49578 3.46415L6.59525 3.76247L6.90969 3.7649C6.95038 3.76523 6.9673 3.81717 6.93453 3.84136L6.68159 4.02815L6.77642 4.32797C6.7887 4.36678 6.74455 4.39889 6.71136 4.37522L6.45552 4.19236L6.19967 4.37522C6.16658 4.39894 6.12237 4.36678 6.13461 4.32797L6.22944 4.02815L5.9765 3.84136C5.94378 3.81717 5.96061 3.76523 6.00134 3.7649L6.31578 3.76247L6.41525 3.46415C6.42828 3.42548 6.48289 3.42548 6.49578 3.46415Z" fill="#F5F5F5"/>
<path d="M6.49578 6.22407L6.59525 6.52238L6.90969 6.52482C6.95038 6.52515 6.9673 6.57708 6.93453 6.60132L6.68159 6.78811L6.77642 7.08793C6.7887 7.12674 6.74455 7.15885 6.71136 7.13518L6.45552 6.95232L6.19967 7.13518C6.16658 7.1589 6.12237 7.12674 6.13461 7.08793L6.22944 6.78811L5.9765 6.60132C5.94378 6.57713 5.96061 6.52515 6.00134 6.52482L6.31578 6.52238L6.41525 6.22407C6.42828 6.18544 6.48289 6.18544 6.49578 6.22407Z" fill="#F5F5F5"/>
<path d="M6.49578 8.7598L6.59525 9.05812L6.90969 9.06055C6.95038 9.06088 6.9673 9.11282 6.93453 9.13701L6.68159 9.3238L6.77642 9.62362C6.7887 9.66243 6.74455 9.69454 6.71136 9.67087L6.45552 9.48801L6.19967 9.67087C6.16658 9.69458 6.12237 9.66243 6.13461 9.62362L6.22944 9.3238L5.9765 9.13701C5.94378 9.11282 5.96061 9.06088 6.00134 9.06055L6.31578 9.05812L6.41525 8.7598C6.42828 8.72118 6.48289 8.72118 6.49578 8.7598Z" fill="#F5F5F5"/>
<path d="M6.49578 11.0673L6.59525 11.3656L6.90969 11.368C6.95038 11.3683 6.9673 11.4203 6.93453 11.4445L6.68159 11.6313L6.77642 11.9311C6.7887 11.9699 6.74455 12.002 6.71136 11.9783L6.45552 11.7955L6.19967 11.9783C6.16658 12.002 6.12237 11.9699 6.13461 11.9311L6.22944 11.6313L5.9765 11.4445C5.94378 11.4203 5.96061 11.3683 6.00134 11.368L6.31578 11.3656L6.41525 11.0673C6.42828 11.0286 6.48289 11.0286 6.49578 11.0673Z" fill="#F5F5F5"/>
<path d="M7.70696 2.15406L7.80643 2.45237L8.12087 2.45481C8.16156 2.45514 8.17848 2.50708 8.14571 2.53126L7.89278 2.71806L7.98761 3.01787C7.99989 3.05669 7.95573 3.08879 7.92254 3.06512L7.6667 2.88226L7.41086 3.06512C7.37776 3.08884 7.33356 3.05669 7.34579 3.01787L7.44062 2.71806L7.18768 2.53126C7.15497 2.50708 7.17179 2.45514 7.21248 2.45481L7.52692 2.45237L7.62639 2.15406C7.63946 2.11544 7.69407 2.11544 7.70696 2.15406Z" fill="#F5F5F5"/>
<path d="M7.70696 4.91401L7.80643 5.21232L8.12087 5.21476C8.16156 5.21509 8.17848 5.26702 8.14571 5.29121L7.89278 5.47801L7.98761 5.77782C7.99989 5.81663 7.95573 5.84874 7.92254 5.82507L7.6667 5.64221L7.41086 5.82507C7.37776 5.84879 7.33356 5.81663 7.34579 5.77782L7.44062 5.47801L7.18768 5.29121C7.15497 5.26702 7.17179 5.21509 7.21248 5.21476L7.52692 5.21232L7.62639 4.91401C7.63946 4.87538 7.69407 4.87538 7.70696 4.91401Z" fill="#F5F5F5"/>
<path d="M7.70696 7.53614L7.80643 7.83445L8.12087 7.83689C8.16156 7.83721 8.17848 7.88915 8.14571 7.91334L7.89278 8.10014L7.98761 8.39995C7.99989 8.43876 7.95573 8.47087 7.92254 8.4472L7.6667 8.26434L7.41086 8.4472C7.37776 8.47092 7.33356 8.43876 7.34579 8.39995L7.44062 8.10014L7.18768 7.91334C7.15497 7.88915 7.17179 7.83721 7.21248 7.83689L7.52692 7.83445L7.62639 7.53614C7.63946 7.49756 7.69407 7.49756 7.70696 7.53614Z" fill="#F5F5F5"/>
<path d="M7.70696 9.89094L7.80643 10.1893L8.12087 10.1917C8.16156 10.192 8.17848 10.244 8.14571 10.2681L7.89278 10.4549L7.98761 10.7548C7.99989 10.7936 7.95573 10.8257 7.92254 10.802L7.6667 10.6191L7.41086 10.802C7.37776 10.8257 7.33356 10.7936 7.34579 10.7548L7.44062 10.4549L7.18768 10.2681C7.15497 10.244 7.17179 10.192 7.21248 10.1917L7.52692 10.1893L7.62639 9.89094C7.63946 9.85227 7.69407 9.85227 7.70696 9.89094Z" fill="#F5F5F5"/>
<path d="M8.91814 0.975655L9.01761 1.27397L9.33205 1.2764C9.37274 1.27673 9.38966 1.32867 9.35689 1.35286L9.10396 1.53965L9.19879 1.83947C9.21107 1.87828 9.16691 1.91039 9.13372 1.88672L8.87788 1.70386L8.62203 1.88672C8.58894 1.91044 8.54474 1.87828 8.55697 1.83947L8.6518 1.53965L8.39886 1.35286C8.36614 1.32867 8.38297 1.27673 8.42371 1.2764L8.73814 1.27397L8.83761 0.975655C8.85064 0.93703 8.90525 0.93703 8.91814 0.975655Z" fill="#F5F5F5"/>
<path d="M8.91814 3.46415L9.01761 3.76247L9.33205 3.7649C9.37274 3.76523 9.38966 3.81717 9.35689 3.84136L9.10396 4.02815L9.19879 4.32797C9.21107 4.36678 9.16691 4.39889 9.13372 4.37522L8.87788 4.19236L8.62203 4.37522C8.58894 4.39894 8.54474 4.36678 8.55697 4.32797L8.6518 4.02815L8.39886 3.84136C8.36614 3.81717 8.38297 3.76523 8.42371 3.7649L8.73814 3.76247L8.83761 3.46415C8.85064 3.42548 8.90525 3.42548 8.91814 3.46415Z" fill="#F5F5F5"/>
<path d="M8.91814 6.22407L9.01761 6.52238L9.33205 6.52482C9.37274 6.52515 9.38966 6.57708 9.35689 6.60132L9.10396 6.78811L9.19879 7.08793C9.21107 7.12674 9.16691 7.15885 9.13372 7.13518L8.87788 6.95232L8.62203 7.13518C8.58894 7.1589 8.54474 7.12674 8.55697 7.08793L8.6518 6.78811L8.39886 6.60132C8.36614 6.57713 8.38297 6.52515 8.42371 6.52482L8.73814 6.52238L8.83761 6.22407C8.85064 6.18544 8.90525 6.18544 8.91814 6.22407Z" fill="#F5F5F5"/>
<path d="M8.91814 8.7598L9.01761 9.05812L9.33205 9.06055C9.37274 9.06088 9.38966 9.11282 9.35689 9.13701L9.10396 9.3238L9.19879 9.62362C9.21107 9.66243 9.16691 9.69454 9.13372 9.67087L8.87788 9.48801L8.62203 9.67087C8.58894 9.69458 8.54474 9.66243 8.55697 9.62362L8.6518 9.3238L8.39886 9.13701C8.36614 9.11282 8.38297 9.06088 8.42371 9.06055L8.73814 9.05812L8.83761 8.7598C8.85064 8.72118 8.90525 8.72118 8.91814 8.7598Z" fill="#F5F5F5"/>
<path d="M8.91814 11.0673L9.01761 11.3656L9.33205 11.368C9.37274 11.3683 9.38966 11.4203 9.35689 11.4445L9.10396 11.6313L9.19879 11.9311C9.21107 11.9699 9.16691 12.002 9.13372 11.9783L8.87788 11.7955L8.62203 11.9783C8.58894 12.002 8.54474 11.9699 8.55697 11.9311L8.6518 11.6313L8.39886 11.4445C8.36614 11.4203 8.38297 11.3683 8.42371 11.368L8.73814 11.3656L8.83761 11.0673C8.85064 11.0286 8.90525 11.0286 8.91814 11.0673Z" fill="#F5F5F5"/>
<path d="M10.1293 2.15406L10.2288 2.45237L10.5432 2.45481C10.5839 2.45514 10.6008 2.50708 10.5681 2.53126L10.3151 2.71806L10.41 3.01787C10.4222 3.05669 10.3781 3.08879 10.3449 3.06512L10.0891 2.88226L9.83322 3.06512C9.80012 3.08884 9.75592 3.05669 9.76815 3.01787L9.86298 2.71806L9.61004 2.53126C9.57733 2.50708 9.59415 2.45514 9.63489 2.45481L9.94933 2.45237L10.0488 2.15406C10.0618 2.11544 10.1164 2.11544 10.1293 2.15406Z" fill="#F5F5F5"/>
<path d="M10.1293 4.91401L10.2288 5.21232L10.5432 5.21476C10.5839 5.21509 10.6008 5.26702 10.5681 5.29121L10.3151 5.47801L10.41 5.77782C10.4222 5.81663 10.3781 5.84874 10.3449 5.82507L10.0891 5.64221L9.83322 5.82507C9.80012 5.84879 9.75592 5.81663 9.76815 5.77782L9.86298 5.47801L9.61004 5.29121C9.57733 5.26702 9.59415 5.21509 9.63489 5.21476L9.94933 5.21232L10.0488 4.91401C10.0618 4.87538 10.1164 4.87538 10.1293 4.91401Z" fill="#F5F5F5"/>
<path d="M10.1293 7.53614L10.2288 7.83445L10.5432 7.83689C10.5839 7.83721 10.6008 7.88915 10.5681 7.91334L10.3151 8.10014L10.41 8.39995C10.4222 8.43876 10.3781 8.47087 10.3449 8.4472L10.0891 8.26434L9.83322 8.4472C9.80012 8.47092 9.75592 8.43876 9.76815 8.39995L9.86298 8.10014L9.61004 7.91334C9.57733 7.88915 9.59415 7.83721 9.63489 7.83689L9.94933 7.83445L10.0488 7.53614C10.0618 7.49756 10.1164 7.49756 10.1293 7.53614Z" fill="#F5F5F5"/>
<path d="M10.1293 9.89094L10.2288 10.1893L10.5432 10.1917C10.5839 10.192 10.6008 10.244 10.5681 10.2681L10.3151 10.4549L10.41 10.7548C10.4222 10.7936 10.3781 10.8257 10.3449 10.802L10.0891 10.6191L9.83322 10.802C9.80012 10.8257 9.75592 10.7936 9.76815 10.7548L9.86298 10.4549L9.61004 10.2681C9.57733 10.244 9.59415 10.192 9.63489 10.1917L9.94933 10.1893L10.0488 9.89094C10.0618 9.85227 10.1164 9.85227 10.1293 9.89094Z" fill="#F5F5F5"/>
<path d="M11.3405 0.975655L11.44 1.27397L11.7544 1.2764C11.7951 1.27673 11.812 1.32867 11.7793 1.35286L11.5263 1.53965L11.6211 1.83947C11.6334 1.87828 11.5893 1.91039 11.5561 1.88672L11.3002 1.70386L11.0444 1.88672C11.0113 1.91044 10.9671 1.87828 10.9793 1.83947L11.0742 1.53965L10.8212 1.35286C10.7885 1.32867 10.8053 1.27673 10.8461 1.2764L11.1605 1.27397L11.26 0.975655C11.273 0.93703 11.3276 0.93703 11.3405 0.975655Z" fill="#F5F5F5"/>
<path d="M11.3405 3.46415L11.44 3.76247L11.7544 3.7649C11.7951 3.76523 11.812 3.81717 11.7793 3.84136L11.5263 4.02815L11.6211 4.32797C11.6334 4.36678 11.5893 4.39889 11.5561 4.37522L11.3002 4.19236L11.0444 4.37522C11.0113 4.39894 10.9671 4.36678 10.9793 4.32797L11.0742 4.02815L10.8212 3.84136C10.7885 3.81717 10.8053 3.76523 10.8461 3.7649L11.1605 3.76247L11.26 3.46415C11.273 3.42548 11.3276 3.42548 11.3405 3.46415Z" fill="#F5F5F5"/>
<path d="M11.3405 6.22407L11.44 6.52238L11.7544 6.52482C11.7951 6.52515 11.812 6.57708 11.7793 6.60132L11.5263 6.78811L11.6211 7.08793C11.6334 7.12674 11.5893 7.15885 11.5561 7.13518L11.3002 6.95232L11.0444 7.13518C11.0113 7.1589 10.9671 7.12674 10.9793 7.08793L11.0742 6.78811L10.8212 6.60132C10.7885 6.57713 10.8053 6.52515 10.8461 6.52482L11.1605 6.52238L11.26 6.22407C11.273 6.18544 11.3276 6.18544 11.3405 6.22407Z" fill="#F5F5F5"/>
<path d="M11.3405 8.7598L11.44 9.05812L11.7544 9.06055C11.7951 9.06088 11.812 9.11282 11.7793 9.13701L11.5263 9.3238L11.6211 9.62362C11.6334 9.66243 11.5893 9.69454 11.5561 9.67087L11.3002 9.48801L11.0444 9.67087C11.0113 9.69458 10.9671 9.66243 10.9793 9.62362L11.0742 9.3238L10.8212 9.13701C10.7885 9.11282 10.8053 9.06088 10.8461 9.06055L11.1605 9.05812L11.26 8.7598C11.273 8.72118 11.3276 8.72118 11.3405 8.7598Z" fill="#F5F5F5"/>
<path d="M11.3405 11.0673L11.44 11.3656L11.7544 11.368C11.7951 11.3683 11.812 11.4203 11.7793 11.4445L11.5263 11.6313L11.6211 11.9311C11.6334 11.9699 11.5893 12.002 11.5561 11.9783L11.3002 11.7955L11.0444 11.9783C11.0113 12.002 10.9671 11.9699 10.9793 11.9311L11.0742 11.6313L10.8212 11.4445C10.7885 11.4203 10.8053 11.3683 10.8461 11.368L11.1605 11.3656L11.26 11.0673C11.273 11.0286 11.3276 11.0286 11.3405 11.0673Z" fill="#F5F5F5"/>
</g>
<defs>
<clipPath id="clip0_16_152">
<rect width="24" height="24" rx="4" fill="white"/>
</clipPath>
</defs>
</svg>
