<svg width="25" height="25" viewBox="0 0 25 25" fill="none" xmlns="http://www.w3.org/2000/svg">
<g clip-path="url(#clip0_329_24)">
<path d="M18.44 18.44C16.7306 19.743 14.6491 20.4649 12.5 20.5C5.5 20.5 1.5 12.5 1.5 12.5C2.74389 10.1819 4.46914 8.1566 6.56 6.55999M10.4 4.73999C11.0883 4.57887 11.7931 4.49833 12.5 4.49999C19.5 4.49999 23.5 12.5 23.5 12.5C22.893 13.6356 22.1691 14.7047 21.34 15.69M14.62 14.62C14.3454 14.9147 14.0141 15.1511 13.6462 15.3151C13.2782 15.4791 12.8809 15.5673 12.4781 15.5744C12.0753 15.5815 11.6752 15.5074 11.3016 15.3565C10.9281 15.2056 10.5887 14.981 10.3038 14.6961C10.019 14.4113 9.79439 14.0719 9.64351 13.6984C9.49262 13.3248 9.41853 12.9247 9.42563 12.5219C9.43274 12.1191 9.52091 11.7218 9.68488 11.3538C9.84884 10.9858 10.0853 10.6546 10.38 10.38" stroke="black" stroke-width="2" stroke-linecap="round" stroke-linejoin="round"/>
<path d="M1.5 1.5L23.5 23.5" stroke="black" stroke-width="2" stroke-linecap="round" stroke-linejoin="round"/>
</g>
<defs>
<clipPath id="clip0_329_24">
<rect width="24" height="24" fill="white" transform="translate(0.5 0.5)"/>
</clipPath>
</defs>
</svg>
