<svg width="20" height="20" viewBox="0 0 20 20" fill="none" xmlns="http://www.w3.org/2000/svg">
<g clip-path="url(#clip0_1921_50)">
<path d="M14.1668 17.5V15.8333C14.1668 14.9493 13.8156 14.1014 13.1905 13.4763C12.5654 12.8512 11.7176 12.5 10.8335 12.5H4.16683C3.28277 12.5 2.43493 12.8512 1.80981 13.4763C1.18469 14.1014 0.833496 14.9493 0.833496 15.8333V17.5" stroke="#EC4D69" stroke-width="2" stroke-linecap="round" stroke-linejoin="round"/>
<path d="M7.49984 9.16667C9.34079 9.16667 10.8332 7.67428 10.8332 5.83333C10.8332 3.99238 9.34079 2.5 7.49984 2.5C5.65889 2.5 4.1665 3.99238 4.1665 5.83333C4.1665 7.67428 5.65889 9.16667 7.49984 9.16667Z" stroke="#EC4D69" stroke-width="2" stroke-linecap="round" stroke-linejoin="round"/>
<path d="M19.1665 17.5V15.8333C19.166 15.0948 18.9201 14.3773 18.4676 13.7936C18.0152 13.2099 17.3816 12.793 16.6665 12.6083" stroke="#EC4D69" stroke-width="2" stroke-linecap="round" stroke-linejoin="round"/>
<path d="M13.3335 2.60834C14.0505 2.79192 14.686 3.20892 15.1399 3.7936C15.5937 4.37827 15.84 5.09736 15.84 5.8375C15.84 6.57765 15.5937 7.29674 15.1399 7.88141C14.686 8.46609 14.0505 8.88309 13.3335 9.06667" stroke="#EC4D69" stroke-width="2" stroke-linecap="round" stroke-linejoin="round"/>
</g>
<defs>
<clipPath id="clip0_1921_50">
<rect width="20" height="20" fill="white"/>
</clipPath>
</defs>
</svg>
